ISO-10303-21;
HEADER;
/* Generated by software containing ST-Developer
 * from STEP Tools, Inc. (www.steptools.com) 
 */
/* OPTION: using custom renumber hook */

FILE_DESCRIPTION(
/* description */ ('STEP AP242 Edition 2',
'CAx-IF Rec.Pracs.---Representation and Presentation of Product Manufa
cturing Information (PMI)---4.0---2014-10-13',
'CAx-IF Rec.Pracs.---3D Tessellated Geometry---0.4---2014-09-14','2;1',
'CAx-IF Rec.Pracs.---User Defined Attributes---1.5---2016-08-15'),
/* implementation_level */ '2;1');

FILE_NAME(
/* name */ 'PS_1',
/* time_stamp */ '2026-08-23T11:21:38Z',
/* author */ (''),
/* organization */ (''),
/* preprocessor_version */ 'ST-DEVELOPER v20',
/* originating_system */ 'ONSHAPE BY PTC INC, 1.219',
/* authorisation */ '  ');

FILE_SCHEMA (('AP242_MANAGED_MODEL_BASED_3D_ENGINEERING_MIM_LF { 1 0 10303 442 3 1 4 }'));
ENDSEC;

DATA;
#10=SHAPE_REPRESENTATION_RELATIONSHIP('','',#860,#14);
#11=SHAPE_REPRESENTATION_RELATIONSHIP('','',#861,#15);
#12=SHAPE_REPRESENTATION_RELATIONSHIP('','',#862,#16);
#13=SHAPE_REPRESENTATION_RELATIONSHIP('','',#863,#17);
#14=ADVANCED_BREP_SHAPE_REPRESENTATION('',(#852),#1356);
#15=ADVANCED_BREP_SHAPE_REPRESENTATION('',(#853),#1357);
#16=ADVANCED_BREP_SHAPE_REPRESENTATION('',(#854),#1358);
#17=ADVANCED_BREP_SHAPE_REPRESENTATION('',(#855),#1359);
#18=ORIENTED_EDGE('',*,*,#234,.T.);
#19=ORIENTED_EDGE('',*,*,#235,.F.);
#20=ORIENTED_EDGE('',*,*,#236,.F.);
#21=ORIENTED_EDGE('',*,*,#237,.T.);
#22=ORIENTED_EDGE('',*,*,#238,.T.);
#23=ORIENTED_EDGE('',*,*,#239,.F.);
#24=ORIENTED_EDGE('',*,*,#240,.F.);
#25=ORIENTED_EDGE('',*,*,#235,.T.);
#26=ORIENTED_EDGE('',*,*,#241,.T.);
#27=ORIENTED_EDGE('',*,*,#242,.F.);
#28=ORIENTED_EDGE('',*,*,#243,.F.);
#29=ORIENTED_EDGE('',*,*,#239,.T.);
#30=ORIENTED_EDGE('',*,*,#244,.T.);
#31=ORIENTED_EDGE('',*,*,#237,.F.);
#32=ORIENTED_EDGE('',*,*,#245,.F.);
#33=ORIENTED_EDGE('',*,*,#242,.T.);
#34=ORIENTED_EDGE('',*,*,#236,.T.);
#35=ORIENTED_EDGE('',*,*,#240,.T.);
#36=ORIENTED_EDGE('',*,*,#243,.T.);
#37=ORIENTED_EDGE('',*,*,#245,.T.);
#38=ORIENTED_EDGE('',*,*,#234,.F.);
#39=ORIENTED_EDGE('',*,*,#244,.F.);
#40=ORIENTED_EDGE('',*,*,#241,.F.);
#41=ORIENTED_EDGE('',*,*,#238,.F.);
#42=ORIENTED_EDGE('',*,*,#246,.F.);
#43=ORIENTED_EDGE('',*,*,#247,.F.);
#44=ORIENTED_EDGE('',*,*,#248,.T.);
#45=ORIENTED_EDGE('',*,*,#249,.T.);
#46=ORIENTED_EDGE('',*,*,#250,.F.);
#47=ORIENTED_EDGE('',*,*,#251,.F.);
#48=ORIENTED_EDGE('',*,*,#252,.T.);
#49=ORIENTED_EDGE('',*,*,#247,.T.);
#50=ORIENTED_EDGE('',*,*,#253,.F.);
#51=ORIENTED_EDGE('',*,*,#254,.F.);
#52=ORIENTED_EDGE('',*,*,#255,.T.);
#53=ORIENTED_EDGE('',*,*,#251,.T.);
#54=ORIENTED_EDGE('',*,*,#256,.F.);
#55=ORIENTED_EDGE('',*,*,#249,.F.);
#56=ORIENTED_EDGE('',*,*,#257,.T.);
#57=ORIENTED_EDGE('',*,*,#254,.T.);
#58=ORIENTED_EDGE('',*,*,#248,.F.);
#59=ORIENTED_EDGE('',*,*,#252,.F.);
#60=ORIENTED_EDGE('',*,*,#255,.F.);
#61=ORIENTED_EDGE('',*,*,#257,.F.);
#62=ORIENTED_EDGE('',*,*,#246,.T.);
#63=ORIENTED_EDGE('',*,*,#256,.T.);
#64=ORIENTED_EDGE('',*,*,#253,.T.);
#65=ORIENTED_EDGE('',*,*,#250,.T.);
#66=ORIENTED_EDGE('',*,*,#258,.F.);
#67=ORIENTED_EDGE('',*,*,#259,.F.);
#68=ORIENTED_EDGE('',*,*,#260,.T.);
#69=ORIENTED_EDGE('',*,*,#261,.T.);
#70=ORIENTED_EDGE('',*,*,#262,.F.);
#71=ORIENTED_EDGE('',*,*,#261,.F.);
#72=ORIENTED_EDGE('',*,*,#263,.T.);
#73=ORIENTED_EDGE('',*,*,#264,.T.);
#74=ORIENTED_EDGE('',*,*,#265,.F.);
#75=ORIENTED_EDGE('',*,*,#264,.F.);
#76=ORIENTED_EDGE('',*,*,#266,.T.);
#77=ORIENTED_EDGE('',*,*,#267,.T.);
#78=ORIENTED_EDGE('',*,*,#268,.F.);
#79=ORIENTED_EDGE('',*,*,#267,.F.);
#80=ORIENTED_EDGE('',*,*,#269,.T.);
#81=ORIENTED_EDGE('',*,*,#259,.T.);
#82=ORIENTED_EDGE('',*,*,#260,.F.);
#83=ORIENTED_EDGE('',*,*,#269,.F.);
#84=ORIENTED_EDGE('',*,*,#266,.F.);
#85=ORIENTED_EDGE('',*,*,#263,.F.);
#86=ORIENTED_EDGE('',*,*,#258,.T.);
#87=ORIENTED_EDGE('',*,*,#262,.T.);
#88=ORIENTED_EDGE('',*,*,#265,.T.);
#89=ORIENTED_EDGE('',*,*,#268,.T.);
#90=ORIENTED_EDGE('',*,*,#270,.T.);
#91=ORIENTED_EDGE('',*,*,#271,.F.);
#92=ORIENTED_EDGE('',*,*,#272,.F.);
#93=ORIENTED_EDGE('',*,*,#273,.T.);
#94=ORIENTED_EDGE('',*,*,#274,.F.);
#95=ORIENTED_EDGE('',*,*,#275,.T.);
#96=ORIENTED_EDGE('',*,*,#276,.T.);
#97=ORIENTED_EDGE('',*,*,#277,.F.);
#98=ORIENTED_EDGE('',*,*,#278,.F.);
#99=ORIENTED_EDGE('',*,*,#279,.F.);
#100=ORIENTED_EDGE('',*,*,#280,.T.);
#101=ORIENTED_EDGE('',*,*,#281,.T.);
#102=ORIENTED_EDGE('',*,*,#282,.T.);
#103=ORIENTED_EDGE('',*,*,#283,.T.);
#104=ORIENTED_EDGE('',*,*,#284,.F.);
#105=ORIENTED_EDGE('',*,*,#285,.F.);
#106=ORIENTED_EDGE('',*,*,#286,.F.);
#107=ORIENTED_EDGE('',*,*,#287,.F.);
#108=ORIENTED_EDGE('',*,*,#288,.T.);
#109=ORIENTED_EDGE('',*,*,#271,.T.);
#110=ORIENTED_EDGE('',*,*,#289,.F.);
#111=ORIENTED_EDGE('',*,*,#290,.F.);
#112=ORIENTED_EDGE('',*,*,#291,.T.);
#113=ORIENTED_EDGE('',*,*,#287,.T.);
#114=ORIENTED_EDGE('',*,*,#292,.T.);
#115=ORIENTED_EDGE('',*,*,#293,.F.);
#116=ORIENTED_EDGE('',*,*,#294,.F.);
#117=ORIENTED_EDGE('',*,*,#290,.T.);
#118=ORIENTED_EDGE('',*,*,#295,.T.);
#119=ORIENTED_EDGE('',*,*,#296,.F.);
#120=ORIENTED_EDGE('',*,*,#297,.F.);
#121=ORIENTED_EDGE('',*,*,#293,.T.);
#122=ORIENTED_EDGE('',*,*,#298,.T.);
#123=ORIENTED_EDGE('',*,*,#299,.F.);
#124=ORIENTED_EDGE('',*,*,#300,.F.);
#125=ORIENTED_EDGE('',*,*,#296,.T.);
#126=ORIENTED_EDGE('',*,*,#301,.F.);
#127=ORIENTED_EDGE('',*,*,#302,.F.);
#128=ORIENTED_EDGE('',*,*,#303,.T.);
#129=ORIENTED_EDGE('',*,*,#299,.T.);
#130=ORIENTED_EDGE('',*,*,#304,.F.);
#131=ORIENTED_EDGE('',*,*,#305,.F.);
#132=ORIENTED_EDGE('',*,*,#306,.T.);
#133=ORIENTED_EDGE('',*,*,#302,.T.);
#134=ORIENTED_EDGE('',*,*,#307,.T.);
#135=ORIENTED_EDGE('',*,*,#308,.F.);
#136=ORIENTED_EDGE('',*,*,#309,.F.);
#137=ORIENTED_EDGE('',*,*,#305,.T.);
#138=ORIENTED_EDGE('',*,*,#310,.T.);
#139=ORIENTED_EDGE('',*,*,#311,.F.);
#140=ORIENTED_EDGE('',*,*,#312,.F.);
#141=ORIENTED_EDGE('',*,*,#308,.T.);
#142=ORIENTED_EDGE('',*,*,#313,.T.);
#143=ORIENTED_EDGE('',*,*,#314,.F.);
#144=ORIENTED_EDGE('',*,*,#315,.F.);
#145=ORIENTED_EDGE('',*,*,#311,.T.);
#146=ORIENTED_EDGE('',*,*,#316,.T.);
#147=ORIENTED_EDGE('',*,*,#317,.F.);
#148=ORIENTED_EDGE('',*,*,#318,.F.);
#149=ORIENTED_EDGE('',*,*,#314,.T.);
#150=ORIENTED_EDGE('',*,*,#319,.F.);
#151=ORIENTED_EDGE('',*,*,#281,.F.);
#152=ORIENTED_EDGE('',*,*,#320,.T.);
#153=ORIENTED_EDGE('',*,*,#317,.T.);
#154=ORIENTED_EDGE('',*,*,#321,.F.);
#155=ORIENTED_EDGE('',*,*,#322,.F.);
#156=ORIENTED_EDGE('',*,*,#323,.T.);
#157=ORIENTED_EDGE('',*,*,#279,.T.);
#158=ORIENTED_EDGE('',*,*,#324,.T.);
#159=ORIENTED_EDGE('',*,*,#273,.F.);
#160=ORIENTED_EDGE('',*,*,#325,.F.);
#161=ORIENTED_EDGE('',*,*,#322,.T.);
#162=ORIENTED_EDGE('',*,*,#272,.T.);
#163=ORIENTED_EDGE('',*,*,#288,.F.);
#164=ORIENTED_EDGE('',*,*,#291,.F.);
#165=ORIENTED_EDGE('',*,*,#294,.T.);
#166=ORIENTED_EDGE('',*,*,#297,.T.);
#167=ORIENTED_EDGE('',*,*,#300,.T.);
#168=ORIENTED_EDGE('',*,*,#303,.F.);
#169=ORIENTED_EDGE('',*,*,#306,.F.);
#170=ORIENTED_EDGE('',*,*,#309,.T.);
#171=ORIENTED_EDGE('',*,*,#312,.T.);
#172=ORIENTED_EDGE('',*,*,#315,.T.);
#173=ORIENTED_EDGE('',*,*,#318,.T.);
#174=ORIENTED_EDGE('',*,*,#320,.F.);
#175=ORIENTED_EDGE('',*,*,#280,.F.);
#176=ORIENTED_EDGE('',*,*,#323,.F.);
#177=ORIENTED_EDGE('',*,*,#325,.T.);
#178=ORIENTED_EDGE('',*,*,#270,.F.);
#179=ORIENTED_EDGE('',*,*,#324,.F.);
#180=ORIENTED_EDGE('',*,*,#321,.T.);
#181=ORIENTED_EDGE('',*,*,#278,.T.);
#182=ORIENTED_EDGE('',*,*,#319,.T.);
#183=ORIENTED_EDGE('',*,*,#316,.F.);
#184=ORIENTED_EDGE('',*,*,#313,.F.);
#185=ORIENTED_EDGE('',*,*,#310,.F.);
#186=ORIENTED_EDGE('',*,*,#307,.F.);
#187=ORIENTED_EDGE('',*,*,#304,.T.);
#188=ORIENTED_EDGE('',*,*,#301,.T.);
#189=ORIENTED_EDGE('',*,*,#298,.F.);
#190=ORIENTED_EDGE('',*,*,#295,.F.);
#191=ORIENTED_EDGE('',*,*,#292,.F.);
#192=ORIENTED_EDGE('',*,*,#289,.T.);
#193=ORIENTED_EDGE('',*,*,#286,.T.);
#194=ORIENTED_EDGE('',*,*,#326,.F.);
#195=ORIENTED_EDGE('',*,*,#327,.F.);
#196=ORIENTED_EDGE('',*,*,#328,.T.);
#197=ORIENTED_EDGE('',*,*,#329,.T.);
#198=ORIENTED_EDGE('',*,*,#330,.F.);
#199=ORIENTED_EDGE('',*,*,#329,.F.);
#200=ORIENTED_EDGE('',*,*,#331,.T.);
#201=ORIENTED_EDGE('',*,*,#285,.T.);
#202=ORIENTED_EDGE('',*,*,#332,.F.);
#203=ORIENTED_EDGE('',*,*,#283,.F.);
#204=ORIENTED_EDGE('',*,*,#333,.T.);
#205=ORIENTED_EDGE('',*,*,#327,.T.);
#206=ORIENTED_EDGE('',*,*,#328,.F.);
#207=ORIENTED_EDGE('',*,*,#333,.F.);
#208=ORIENTED_EDGE('',*,*,#282,.F.);
#209=ORIENTED_EDGE('',*,*,#331,.F.);
#210=ORIENTED_EDGE('',*,*,#326,.T.);
#211=ORIENTED_EDGE('',*,*,#330,.T.);
#212=ORIENTED_EDGE('',*,*,#284,.T.);
#213=ORIENTED_EDGE('',*,*,#332,.T.);
#214=ORIENTED_EDGE('',*,*,#334,.T.);
#215=ORIENTED_EDGE('',*,*,#275,.F.);
#216=ORIENTED_EDGE('',*,*,#335,.F.);
#217=ORIENTED_EDGE('',*,*,#336,.T.);
#218=ORIENTED_EDGE('',*,*,#337,.T.);
#219=ORIENTED_EDGE('',*,*,#336,.F.);
#220=ORIENTED_EDGE('',*,*,#338,.F.);
#221=ORIENTED_EDGE('',*,*,#339,.T.);
#222=ORIENTED_EDGE('',*,*,#340,.T.);
#223=ORIENTED_EDGE('',*,*,#339,.F.);
#224=ORIENTED_EDGE('',*,*,#341,.F.);
#225=ORIENTED_EDGE('',*,*,#277,.T.);
#226=ORIENTED_EDGE('',*,*,#335,.T.);
#227=ORIENTED_EDGE('',*,*,#274,.T.);
#228=ORIENTED_EDGE('',*,*,#341,.T.);
#229=ORIENTED_EDGE('',*,*,#338,.T.);
#230=ORIENTED_EDGE('',*,*,#334,.F.);
#231=ORIENTED_EDGE('',*,*,#337,.F.);
#232=ORIENTED_EDGE('',*,*,#340,.F.);
#233=ORIENTED_EDGE('',*,*,#276,.F.);
#234=EDGE_CURVE('',#342,#343,#414,.T.);
#235=EDGE_CURVE('',#344,#343,#415,.T.);
#236=EDGE_CURVE('',#345,#344,#416,.T.);
#237=EDGE_CURVE('',#345,#342,#417,.T.);
#238=EDGE_CURVE('',#343,#346,#418,.T.);
#239=EDGE_CURVE('',#347,#346,#419,.T.);
#240=EDGE_CURVE('',#344,#347,#420,.T.);
#241=EDGE_CURVE('',#346,#348,#421,.T.);
#242=EDGE_CURVE('',#349,#348,#422,.T.);
#243=EDGE_CURVE('',#347,#349,#423,.T.);
#244=EDGE_CURVE('',#348,#342,#424,.T.);
#245=EDGE_CURVE('',#349,#345,#425,.T.);
#246=EDGE_CURVE('',#350,#351,#426,.T.);
#247=EDGE_CURVE('',#352,#350,#427,.T.);
#248=EDGE_CURVE('',#352,#353,#428,.T.);
#249=EDGE_CURVE('',#353,#351,#429,.T.);
#250=EDGE_CURVE('',#354,#350,#430,.T.);
#251=EDGE_CURVE('',#355,#354,#431,.T.);
#252=EDGE_CURVE('',#355,#352,#432,.T.);
#253=EDGE_CURVE('',#356,#354,#433,.T.);
#254=EDGE_CURVE('',#357,#356,#434,.T.);
#255=EDGE_CURVE('',#357,#355,#435,.T.);
#256=EDGE_CURVE('',#351,#356,#436,.T.);
#257=EDGE_CURVE('',#353,#357,#437,.T.);
#258=EDGE_CURVE('',#358,#359,#438,.T.);
#259=EDGE_CURVE('',#360,#358,#439,.T.);
#260=EDGE_CURVE('',#360,#361,#440,.T.);
#261=EDGE_CURVE('',#361,#359,#441,.T.);
#262=EDGE_CURVE('',#359,#362,#442,.T.);
#263=EDGE_CURVE('',#361,#363,#443,.T.);
#264=EDGE_CURVE('',#363,#362,#444,.T.);
#265=EDGE_CURVE('',#362,#364,#445,.T.);
#266=EDGE_CURVE('',#363,#365,#446,.T.);
#267=EDGE_CURVE('',#365,#364,#447,.T.);
#268=EDGE_CURVE('',#364,#358,#448,.T.);
#269=EDGE_CURVE('',#365,#360,#449,.T.);
#270=EDGE_CURVE('',#366,#367,#450,.T.);
#271=EDGE_CURVE('',#368,#367,#451,.T.);
#272=EDGE_CURVE('',#369,#368,#452,.T.);
#273=EDGE_CURVE('',#369,#366,#453,.T.);
#274=EDGE_CURVE('',#370,#371,#454,.T.);
#275=EDGE_CURVE('',#370,#372,#455,.T.);
#276=EDGE_CURVE('',#372,#373,#456,.T.);
#277=EDGE_CURVE('',#371,#373,#457,.T.);
#278=EDGE_CURVE('',#374,#375,#458,.T.);
#279=EDGE_CURVE('',#376,#374,#459,.T.);
#280=EDGE_CURVE('',#376,#377,#460,.T.);
#281=EDGE_CURVE('',#377,#375,#461,.T.);
#282=EDGE_CURVE('',#378,#379,#462,.T.);
#283=EDGE_CURVE('',#379,#380,#463,.T.);
#284=EDGE_CURVE('',#381,#380,#464,.T.);
#285=EDGE_CURVE('',#378,#381,#465,.T.);
#286=EDGE_CURVE('',#382,#367,#466,.T.);
#287=EDGE_CURVE('',#383,#382,#467,.T.);
#288=EDGE_CURVE('',#383,#368,#468,.T.);
#289=EDGE_CURVE('',#384,#382,#469,.T.);
#290=EDGE_CURVE('',#385,#384,#470,.T.);
#291=EDGE_CURVE('',#385,#383,#471,.T.);
#292=EDGE_CURVE('',#384,#386,#472,.T.);
#293=EDGE_CURVE('',#387,#386,#473,.T.);
#294=EDGE_CURVE('',#385,#387,#474,.T.);
#295=EDGE_CURVE('',#386,#388,#475,.T.);
#296=EDGE_CURVE('',#389,#388,#476,.T.);
#297=EDGE_CURVE('',#387,#389,#477,.T.);
#298=EDGE_CURVE('',#388,#390,#478,.T.);
#299=EDGE_CURVE('',#391,#390,#479,.T.);
#300=EDGE_CURVE('',#389,#391,#480,.T.);
#301=EDGE_CURVE('',#392,#390,#481,.T.);
#302=EDGE_CURVE('',#393,#392,#482,.T.);
#303=EDGE_CURVE('',#393,#391,#483,.T.);
#304=EDGE_CURVE('',#394,#392,#484,.T.);
#305=EDGE_CURVE('',#395,#394,#485,.T.);
#306=EDGE_CURVE('',#395,#393,#486,.T.);
#307=EDGE_CURVE('',#394,#396,#487,.T.);
#308=EDGE_CURVE('',#397,#396,#488,.T.);
#309=EDGE_CURVE('',#395,#397,#489,.T.);
#310=EDGE_CURVE('',#396,#398,#490,.T.);
#311=EDGE_CURVE('',#399,#398,#491,.T.);
#312=EDGE_CURVE('',#397,#399,#492,.T.);
#313=EDGE_CURVE('',#398,#400,#493,.T.);
#314=EDGE_CURVE('',#401,#400,#494,.T.);
#315=EDGE_CURVE('',#399,#401,#495,.T.);
#316=EDGE_CURVE('',#400,#402,#496,.T.);
#317=EDGE_CURVE('',#403,#402,#497,.T.);
#318=EDGE_CURVE('',#401,#403,#498,.T.);
#319=EDGE_CURVE('',#375,#402,#499,.T.);
#320=EDGE_CURVE('',#377,#403,#500,.T.);
#321=EDGE_CURVE('',#404,#374,#501,.T.);
#322=EDGE_CURVE('',#405,#404,#502,.T.);
#323=EDGE_CURVE('',#405,#376,#503,.T.);
#324=EDGE_CURVE('',#404,#366,#504,.T.);
#325=EDGE_CURVE('',#405,#369,#505,.T.);
#326=EDGE_CURVE('',#406,#407,#506,.T.);
#327=EDGE_CURVE('',#408,#406,#507,.T.);
#328=EDGE_CURVE('',#408,#409,#508,.T.);
#329=EDGE_CURVE('',#409,#407,#509,.T.);
#330=EDGE_CURVE('',#407,#381,#510,.T.);
#331=EDGE_CURVE('',#409,#378,#511,.T.);
#332=EDGE_CURVE('',#380,#406,#512,.T.);
#333=EDGE_CURVE('',#379,#408,#513,.T.);
#334=EDGE_CURVE('',#410,#372,#514,.T.);
#335=EDGE_CURVE('',#411,#370,#515,.T.);
#336=EDGE_CURVE('',#411,#410,#516,.T.);
#337=EDGE_CURVE('',#412,#410,#517,.T.);
#338=EDGE_CURVE('',#413,#411,#518,.T.);
#339=EDGE_CURVE('',#413,#412,#519,.T.);
#340=EDGE_CURVE('',#373,#412,#520,.T.);
#341=EDGE_CURVE('',#371,#413,#521,.T.);
#342=VERTEX_POINT('',#1125);
#343=VERTEX_POINT('',#1126);
#344=VERTEX_POINT('',#1128);
#345=VERTEX_POINT('',#1130);
#346=VERTEX_POINT('',#1134);
#347=VERTEX_POINT('',#1136);
#348=VERTEX_POINT('',#1140);
#349=VERTEX_POINT('',#1142);
#350=VERTEX_POINT('',#1152);
#351=VERTEX_POINT('',#1153);
#352=VERTEX_POINT('',#1155);
#353=VERTEX_POINT('',#1157);
#354=VERTEX_POINT('',#1161);
#355=VERTEX_POINT('',#1163);
#356=VERTEX_POINT('',#1167);
#357=VERTEX_POINT('',#1169);
#358=VERTEX_POINT('',#1179);
#359=VERTEX_POINT('',#1180);
#360=VERTEX_POINT('',#1182);
#361=VERTEX_POINT('',#1184);
#362=VERTEX_POINT('',#1188);
#363=VERTEX_POINT('',#1190);
#364=VERTEX_POINT('',#1194);
#365=VERTEX_POINT('',#1196);
#366=VERTEX_POINT('',#1206);
#367=VERTEX_POINT('',#1207);
#368=VERTEX_POINT('',#1209);
#369=VERTEX_POINT('',#1211);
#370=VERTEX_POINT('',#1214);
#371=VERTEX_POINT('',#1215);
#372=VERTEX_POINT('',#1217);
#373=VERTEX_POINT('',#1219);
#374=VERTEX_POINT('',#1223);
#375=VERTEX_POINT('',#1224);
#376=VERTEX_POINT('',#1226);
#377=VERTEX_POINT('',#1228);
#378=VERTEX_POINT('',#1231);
#379=VERTEX_POINT('',#1232);
#380=VERTEX_POINT('',#1234);
#381=VERTEX_POINT('',#1236);
#382=VERTEX_POINT('',#1240);
#383=VERTEX_POINT('',#1242);
#384=VERTEX_POINT('',#1246);
#385=VERTEX_POINT('',#1248);
#386=VERTEX_POINT('',#1252);
#387=VERTEX_POINT('',#1254);
#388=VERTEX_POINT('',#1258);
#389=VERTEX_POINT('',#1260);
#390=VERTEX_POINT('',#1264);
#391=VERTEX_POINT('',#1266);
#392=VERTEX_POINT('',#1270);
#393=VERTEX_POINT('',#1272);
#394=VERTEX_POINT('',#1276);
#395=VERTEX_POINT('',#1278);
#396=VERTEX_POINT('',#1282);
#397=VERTEX_POINT('',#1284);
#398=VERTEX_POINT('',#1288);
#399=VERTEX_POINT('',#1290);
#400=VERTEX_POINT('',#1294);
#401=VERTEX_POINT('',#1296);
#402=VERTEX_POINT('',#1300);
#403=VERTEX_POINT('',#1302);
#404=VERTEX_POINT('',#1309);
#405=VERTEX_POINT('',#1311);
#406=VERTEX_POINT('',#1320);
#407=VERTEX_POINT('',#1321);
#408=VERTEX_POINT('',#1323);
#409=VERTEX_POINT('',#1325);
#410=VERTEX_POINT('',#1337);
#411=VERTEX_POINT('',#1339);
#412=VERTEX_POINT('',#1343);
#413=VERTEX_POINT('',#1345);
#414=LINE('',#1124,#522);
#415=LINE('',#1127,#523);
#416=LINE('',#1129,#524);
#417=LINE('',#1131,#525);
#418=LINE('',#1133,#526);
#419=LINE('',#1135,#527);
#420=LINE('',#1137,#528);
#421=LINE('',#1139,#529);
#422=LINE('',#1141,#530);
#423=LINE('',#1143,#531);
#424=LINE('',#1145,#532);
#425=LINE('',#1146,#533);
#426=LINE('',#1151,#534);
#427=LINE('',#1154,#535);
#428=LINE('',#1156,#536);
#429=LINE('',#1158,#537);
#430=LINE('',#1160,#538);
#431=LINE('',#1162,#539);
#432=LINE('',#1164,#540);
#433=LINE('',#1166,#541);
#434=LINE('',#1168,#542);
#435=LINE('',#1170,#543);
#436=LINE('',#1172,#544);
#437=LINE('',#1173,#545);
#438=LINE('',#1178,#546);
#439=LINE('',#1181,#547);
#440=LINE('',#1183,#548);
#441=LINE('',#1185,#549);
#442=LINE('',#1187,#550);
#443=LINE('',#1189,#551);
#444=LINE('',#1191,#552);
#445=LINE('',#1193,#553);
#446=LINE('',#1195,#554);
#447=LINE('',#1197,#555);
#448=LINE('',#1199,#556);
#449=LINE('',#1200,#557);
#450=LINE('',#1205,#558);
#451=LINE('',#1208,#559);
#452=LINE('',#1210,#560);
#453=LINE('',#1212,#561);
#454=LINE('',#1213,#562);
#455=LINE('',#1216,#563);
#456=LINE('',#1218,#564);
#457=LINE('',#1220,#565);
#458=LINE('',#1222,#566);
#459=LINE('',#1225,#567);
#460=LINE('',#1227,#568);
#461=LINE('',#1229,#569);
#462=LINE('',#1230,#570);
#463=LINE('',#1233,#571);
#464=LINE('',#1235,#572);
#465=LINE('',#1237,#573);
#466=LINE('',#1239,#574);
#467=LINE('',#1241,#575);
#468=LINE('',#1243,#576);
#469=LINE('',#1245,#577);
#470=LINE('',#1247,#578);
#471=LINE('',#1249,#579);
#472=LINE('',#1251,#580);
#473=LINE('',#1253,#581);
#474=LINE('',#1255,#582);
#475=LINE('',#1257,#583);
#476=LINE('',#1259,#584);
#477=LINE('',#1261,#585);
#478=LINE('',#1263,#586);
#479=LINE('',#1265,#587);
#480=LINE('',#1267,#588);
#481=LINE('',#1269,#589);
#482=LINE('',#1271,#590);
#483=LINE('',#1273,#591);
#484=LINE('',#1275,#592);
#485=LINE('',#1277,#593);
#486=LINE('',#1279,#594);
#487=LINE('',#1281,#595);
#488=LINE('',#1283,#596);
#489=LINE('',#1285,#597);
#490=LINE('',#1287,#598);
#491=LINE('',#1289,#599);
#492=LINE('',#1291,#600);
#493=LINE('',#1293,#601);
#494=LINE('',#1295,#602);
#495=LINE('',#1297,#603);
#496=LINE('',#1299,#604);
#497=LINE('',#1301,#605);
#498=LINE('',#1303,#606);
#499=LINE('',#1305,#607);
#500=LINE('',#1306,#608);
#501=LINE('',#1308,#609);
#502=LINE('',#1310,#610);
#503=LINE('',#1312,#611);
#504=LINE('',#1314,#612);
#505=LINE('',#1315,#613);
#506=LINE('',#1319,#614);
#507=LINE('',#1322,#615);
#508=LINE('',#1324,#616);
#509=LINE('',#1326,#617);
#510=LINE('',#1328,#618);
#511=LINE('',#1329,#619);
#512=LINE('',#1331,#620);
#513=LINE('',#1332,#621);
#514=LINE('',#1336,#622);
#515=LINE('',#1338,#623);
#516=LINE('',#1340,#624);
#517=LINE('',#1342,#625);
#518=LINE('',#1344,#626);
#519=LINE('',#1346,#627);
#520=LINE('',#1348,#628);
#521=LINE('',#1349,#629);
#522=VECTOR('',#918,1.);
#523=VECTOR('',#919,1.);
#524=VECTOR('',#920,1.);
#525=VECTOR('',#921,1.);
#526=VECTOR('',#924,1.);
#527=VECTOR('',#925,1.);
#528=VECTOR('',#926,1.);
#529=VECTOR('',#929,1.);
#530=VECTOR('',#930,1.);
#531=VECTOR('',#931,1.);
#532=VECTOR('',#934,1.);
#533=VECTOR('',#935,1.);
#534=VECTOR('',#944,1.);
#535=VECTOR('',#945,1.);
#536=VECTOR('',#946,1.);
#537=VECTOR('',#947,1.);
#538=VECTOR('',#950,1.);
#539=VECTOR('',#951,1.);
#540=VECTOR('',#952,1.);
#541=VECTOR('',#955,1.);
#542=VECTOR('',#956,1.);
#543=VECTOR('',#957,1.);
#544=VECTOR('',#960,1.);
#545=VECTOR('',#961,1.);
#546=VECTOR('',#970,1.);
#547=VECTOR('',#971,1.);
#548=VECTOR('',#972,1.);
#549=VECTOR('',#973,1.);
#550=VECTOR('',#976,1.);
#551=VECTOR('',#977,1.);
#552=VECTOR('',#978,1.);
#553=VECTOR('',#981,1.);
#554=VECTOR('',#982,1.);
#555=VECTOR('',#983,1.);
#556=VECTOR('',#986,1.);
#557=VECTOR('',#987,1.);
#558=VECTOR('',#996,1.);
#559=VECTOR('',#997,1.);
#560=VECTOR('',#998,1.);
#561=VECTOR('',#999,1.);
#562=VECTOR('',#1000,1.);
#563=VECTOR('',#1001,1.);
#564=VECTOR('',#1002,1.);
#565=VECTOR('',#1003,1.);
#566=VECTOR('',#1006,1.);
#567=VECTOR('',#1007,1.);
#568=VECTOR('',#1008,1.);
#569=VECTOR('',#1009,1.);
#570=VECTOR('',#1010,1.);
#571=VECTOR('',#1011,1.);
#572=VECTOR('',#1012,1.);
#573=VECTOR('',#1013,1.);
#574=VECTOR('',#1016,1.);
#575=VECTOR('',#1017,1.);
#576=VECTOR('',#1018,1.);
#577=VECTOR('',#1021,1.);
#578=VECTOR('',#1022,1.);
#579=VECTOR('',#1023,1.);
#580=VECTOR('',#1026,1.);
#581=VECTOR('',#1027,1.);
#582=VECTOR('',#1028,1.);
#583=VECTOR('',#1031,1.);
#584=VECTOR('',#1032,1.);
#585=VECTOR('',#1033,1.);
#586=VECTOR('',#1036,1.);
#587=VECTOR('',#1037,1.);
#588=VECTOR('',#1038,1.);
#589=VECTOR('',#1041,1.);
#590=VECTOR('',#1042,1.);
#591=VECTOR('',#1043,1.);
#592=VECTOR('',#1046,1.);
#593=VECTOR('',#1047,1.);
#594=VECTOR('',#1048,1.);
#595=VECTOR('',#1051,1.);
#596=VECTOR('',#1052,1.);
#597=VECTOR('',#1053,1.);
#598=VECTOR('',#1056,1.);
#599=VECTOR('',#1057,1.);
#600=VECTOR('',#1058,1.);
#601=VECTOR('',#1061,1.);
#602=VECTOR('',#1062,1.);
#603=VECTOR('',#1063,1.);
#604=VECTOR('',#1066,1.);
#605=VECTOR('',#1067,1.);
#606=VECTOR('',#1068,1.);
#607=VECTOR('',#1071,1.);
#608=VECTOR('',#1072,1.);
#609=VECTOR('',#1075,1.);
#610=VECTOR('',#1076,1.);
#611=VECTOR('',#1077,1.);
#612=VECTOR('',#1080,1.);
#613=VECTOR('',#1081,1.);
#614=VECTOR('',#1088,1.);
#615=VECTOR('',#1089,1.);
#616=VECTOR('',#1090,1.);
#617=VECTOR('',#1091,1.);
#618=VECTOR('',#1094,1.);
#619=VECTOR('',#1095,1.);
#620=VECTOR('',#1098,1.);
#621=VECTOR('',#1099,1.);
#622=VECTOR('',#1106,1.);
#623=VECTOR('',#1107,1.);
#624=VECTOR('',#1108,1.);
#625=VECTOR('',#1111,1.);
#626=VECTOR('',#1112,1.);
#627=VECTOR('',#1113,1.);
#628=VECTOR('',#1116,1.);
#629=VECTOR('',#1117,1.);
#630=EDGE_LOOP('',(#18,#19,#20,#21));
#631=EDGE_LOOP('',(#22,#23,#24,#25));
#632=EDGE_LOOP('',(#26,#27,#28,#29));
#633=EDGE_LOOP('',(#30,#31,#32,#33));
#634=EDGE_LOOP('',(#34,#35,#36,#37));
#635=EDGE_LOOP('',(#38,#39,#40,#41));
#636=EDGE_LOOP('',(#42,#43,#44,#45));
#637=EDGE_LOOP('',(#46,#47,#48,#49));
#638=EDGE_LOOP('',(#50,#51,#52,#53));
#639=EDGE_LOOP('',(#54,#55,#56,#57));
#640=EDGE_LOOP('',(#58,#59,#60,#61));
#641=EDGE_LOOP('',(#62,#63,#64,#65));
#642=EDGE_LOOP('',(#66,#67,#68,#69));
#643=EDGE_LOOP('',(#70,#71,#72,#73));
#644=EDGE_LOOP('',(#74,#75,#76,#77));
#645=EDGE_LOOP('',(#78,#79,#80,#81));
#646=EDGE_LOOP('',(#82,#83,#84,#85));
#647=EDGE_LOOP('',(#86,#87,#88,#89));
#648=EDGE_LOOP('',(#90,#91,#92,#93));
#649=EDGE_LOOP('',(#94,#95,#96,#97));
#650=EDGE_LOOP('',(#98,#99,#100,#101));
#651=EDGE_LOOP('',(#102,#103,#104,#105));
#652=EDGE_LOOP('',(#106,#107,#108,#109));
#653=EDGE_LOOP('',(#110,#111,#112,#113));
#654=EDGE_LOOP('',(#114,#115,#116,#117));
#655=EDGE_LOOP('',(#118,#119,#120,#121));
#656=EDGE_LOOP('',(#122,#123,#124,#125));
#657=EDGE_LOOP('',(#126,#127,#128,#129));
#658=EDGE_LOOP('',(#130,#131,#132,#133));
#659=EDGE_LOOP('',(#134,#135,#136,#137));
#660=EDGE_LOOP('',(#138,#139,#140,#141));
#661=EDGE_LOOP('',(#142,#143,#144,#145));
#662=EDGE_LOOP('',(#146,#147,#148,#149));
#663=EDGE_LOOP('',(#150,#151,#152,#153));
#664=EDGE_LOOP('',(#154,#155,#156,#157));
#665=EDGE_LOOP('',(#158,#159,#160,#161));
#666=EDGE_LOOP('',(#162,#163,#164,#165,#166,#167,#168,#169,#170,#171,#172,
#173,#174,#175,#176,#177));
#667=EDGE_LOOP('',(#178,#179,#180,#181,#182,#183,#184,#185,#186,#187,#188,
#189,#190,#191,#192,#193));
#668=EDGE_LOOP('',(#194,#195,#196,#197));
#669=EDGE_LOOP('',(#198,#199,#200,#201));
#670=EDGE_LOOP('',(#202,#203,#204,#205));
#671=EDGE_LOOP('',(#206,#207,#208,#209));
#672=EDGE_LOOP('',(#210,#211,#212,#213));
#673=EDGE_LOOP('',(#214,#215,#216,#217));
#674=EDGE_LOOP('',(#218,#219,#220,#221));
#675=EDGE_LOOP('',(#222,#223,#224,#225));
#676=EDGE_LOOP('',(#226,#227,#228,#229));
#677=EDGE_LOOP('',(#230,#231,#232,#233));
#678=FACE_BOUND('',#630,.T.);
#679=FACE_BOUND('',#631,.T.);
#680=FACE_BOUND('',#632,.T.);
#681=FACE_BOUND('',#633,.T.);
#682=FACE_BOUND('',#634,.T.);
#683=FACE_BOUND('',#635,.T.);
#684=FACE_BOUND('',#636,.T.);
#685=FACE_BOUND('',#637,.T.);
#686=FACE_BOUND('',#638,.T.);
#687=FACE_BOUND('',#639,.T.);
#688=FACE_BOUND('',#640,.T.);
#689=FACE_BOUND('',#641,.T.);
#690=FACE_BOUND('',#642,.T.);
#691=FACE_BOUND('',#643,.T.);
#692=FACE_BOUND('',#644,.T.);
#693=FACE_BOUND('',#645,.T.);
#694=FACE_BOUND('',#646,.T.);
#695=FACE_BOUND('',#647,.T.);
#696=FACE_BOUND('',#648,.T.);
#697=FACE_BOUND('',#649,.T.);
#698=FACE_BOUND('',#650,.T.);
#699=FACE_BOUND('',#651,.T.);
#700=FACE_BOUND('',#652,.T.);
#701=FACE_BOUND('',#653,.T.);
#702=FACE_BOUND('',#654,.T.);
#703=FACE_BOUND('',#655,.T.);
#704=FACE_BOUND('',#656,.T.);
#705=FACE_BOUND('',#657,.T.);
#706=FACE_BOUND('',#658,.T.);
#707=FACE_BOUND('',#659,.T.);
#708=FACE_BOUND('',#660,.T.);
#709=FACE_BOUND('',#661,.T.);
#710=FACE_BOUND('',#662,.T.);
#711=FACE_BOUND('',#663,.T.);
#712=FACE_BOUND('',#664,.T.);
#713=FACE_BOUND('',#665,.T.);
#714=FACE_BOUND('',#666,.T.);
#715=FACE_BOUND('',#667,.T.);
#716=FACE_BOUND('',#668,.T.);
#717=FACE_BOUND('',#669,.T.);
#718=FACE_BOUND('',#670,.T.);
#719=FACE_BOUND('',#671,.T.);
#720=FACE_BOUND('',#672,.T.);
#721=FACE_BOUND('',#673,.T.);
#722=FACE_BOUND('',#674,.T.);
#723=FACE_BOUND('',#675,.T.);
#724=FACE_BOUND('',#676,.T.);
#725=FACE_BOUND('',#677,.T.);
#726=PLANE('',#865);
#727=PLANE('',#866);
#728=PLANE('',#867);
#729=PLANE('',#868);
#730=PLANE('',#869);
#731=PLANE('',#870);
#732=PLANE('',#872);
#733=PLANE('',#873);
#734=PLANE('',#874);
#735=PLANE('',#875);
#736=PLANE('',#876);
#737=PLANE('',#877);
#738=PLANE('',#879);
#739=PLANE('',#880);
#740=PLANE('',#881);
#741=PLANE('',#882);
#742=PLANE('',#883);
#743=PLANE('',#884);
#744=PLANE('',#886);
#745=PLANE('',#887);
#746=PLANE('',#888);
#747=PLANE('',#889);
#748=PLANE('',#890);
#749=PLANE('',#891);
#750=PLANE('',#892);
#751=PLANE('',#893);
#752=PLANE('',#894);
#753=PLANE('',#895);
#754=PLANE('',#896);
#755=PLANE('',#897);
#756=PLANE('',#898);
#757=PLANE('',#899);
#758=PLANE('',#900);
#759=PLANE('',#901);
#760=PLANE('',#902);
#761=PLANE('',#903);
#762=PLANE('',#904);
#763=PLANE('',#905);
#764=PLANE('',#906);
#765=PLANE('',#907);
#766=PLANE('',#908);
#767=PLANE('',#909);
#768=PLANE('',#910);
#769=PLANE('',#911);
#770=PLANE('',#912);
#771=PLANE('',#913);
#772=ADVANCED_FACE('',(#678),#726,.F.);
#773=ADVANCED_FACE('',(#679),#727,.F.);
#774=ADVANCED_FACE('',(#680),#728,.F.);
#775=ADVANCED_FACE('',(#681),#729,.F.);
#776=ADVANCED_FACE('',(#682),#730,.T.);
#777=ADVANCED_FACE('',(#683),#731,.F.);
#778=ADVANCED_FACE('',(#684),#732,.T.);
#779=ADVANCED_FACE('',(#685),#733,.T.);
#780=ADVANCED_FACE('',(#686),#734,.T.);
#781=ADVANCED_FACE('',(#687),#735,.T.);
#782=ADVANCED_FACE('',(#688),#736,.T.);
#783=ADVANCED_FACE('',(#689),#737,.F.);
#784=ADVANCED_FACE('',(#690),#738,.F.);
#785=ADVANCED_FACE('',(#691),#739,.F.);
#786=ADVANCED_FACE('',(#692),#740,.F.);
#787=ADVANCED_FACE('',(#693),#741,.F.);
#788=ADVANCED_FACE('',(#694),#742,.T.);
#789=ADVANCED_FACE('',(#695),#743,.F.);
#790=ADVANCED_FACE('',(#696,#697),#744,.F.);
#791=ADVANCED_FACE('',(#698,#699),#745,.T.);
#792=ADVANCED_FACE('',(#700),#746,.T.);
#793=ADVANCED_FACE('',(#701),#747,.T.);
#794=ADVANCED_FACE('',(#702),#748,.F.);
#795=ADVANCED_FACE('',(#703),#749,.F.);
#796=ADVANCED_FACE('',(#704),#750,.F.);
#797=ADVANCED_FACE('',(#705),#751,.T.);
#798=ADVANCED_FACE('',(#706),#752,.T.);
#799=ADVANCED_FACE('',(#707),#753,.F.);
#800=ADVANCED_FACE('',(#708),#754,.F.);
#801=ADVANCED_FACE('',(#709),#755,.F.);
#802=ADVANCED_FACE('',(#710),#756,.F.);
#803=ADVANCED_FACE('',(#711),#757,.T.);
#804=ADVANCED_FACE('',(#712),#758,.T.);
#805=ADVANCED_FACE('',(#713),#759,.F.);
#806=ADVANCED_FACE('',(#714),#760,.T.);
#807=ADVANCED_FACE('',(#715),#761,.F.);
#808=ADVANCED_FACE('',(#716),#762,.T.);
#809=ADVANCED_FACE('',(#717),#763,.T.);
#810=ADVANCED_FACE('',(#718),#764,.T.);
#811=ADVANCED_FACE('',(#719),#765,.F.);
#812=ADVANCED_FACE('',(#720),#766,.T.);
#813=ADVANCED_FACE('',(#721),#767,.F.);
#814=ADVANCED_FACE('',(#722),#768,.F.);
#815=ADVANCED_FACE('',(#723),#769,.F.);
#816=ADVANCED_FACE('',(#724),#770,.F.);
#817=ADVANCED_FACE('',(#725),#771,.T.);
#818=CLOSED_SHELL('',(#772,#773,#774,#775,#776,#777));
#819=CLOSED_SHELL('',(#778,#779,#780,#781,#782,#783));
#820=CLOSED_SHELL('',(#784,#785,#786,#787,#788,#789));
#821=CLOSED_SHELL('',(#790,#791,#792,#793,#794,#795,#796,#797,#798,#799,
#800,#801,#802,#803,#804,#805,#806,#807,#808,#809,#810,#811,#812,#813,#814,
#815,#816,#817));
#822=STYLED_ITEM('',(#826),#852);
#823=STYLED_ITEM('',(#827),#853);
#824=STYLED_ITEM('',(#828),#854);
#825=STYLED_ITEM('',(#829),#855);
#826=PRESENTATION_STYLE_ASSIGNMENT((#830));
#827=PRESENTATION_STYLE_ASSIGNMENT((#831));
#828=PRESENTATION_STYLE_ASSIGNMENT((#832));
#829=PRESENTATION_STYLE_ASSIGNMENT((#833));
#830=SURFACE_STYLE_USAGE(.BOTH.,#834);
#831=SURFACE_STYLE_USAGE(.BOTH.,#835);
#832=SURFACE_STYLE_USAGE(.BOTH.,#836);
#833=SURFACE_STYLE_USAGE(.BOTH.,#837);
#834=SURFACE_SIDE_STYLE('',(#838));
#835=SURFACE_SIDE_STYLE('',(#839));
#836=SURFACE_SIDE_STYLE('',(#840));
#837=SURFACE_SIDE_STYLE('',(#841));
#838=SURFACE_STYLE_FILL_AREA(#842);
#839=SURFACE_STYLE_FILL_AREA(#843);
#840=SURFACE_STYLE_FILL_AREA(#844);
#841=SURFACE_STYLE_FILL_AREA(#845);
#842=FILL_AREA_STYLE('',(#846));
#843=FILL_AREA_STYLE('',(#847));
#844=FILL_AREA_STYLE('',(#848));
#845=FILL_AREA_STYLE('',(#849));
#846=FILL_AREA_STYLE_COLOUR('',#850);
#847=FILL_AREA_STYLE_COLOUR('',#851);
#848=FILL_AREA_STYLE_COLOUR('',#850);
#849=FILL_AREA_STYLE_COLOUR('',#850);
#850=COLOUR_RGB('',0.615686274509804,0.811764705882353,0.929411764705882);
#851=COLOUR_RGB('',0.647058823529412,0.647058823529412,0.647058823529412);
#852=MANIFOLD_SOLID_BREP('Part 3',#818);
#853=MANIFOLD_SOLID_BREP('Part 2',#819);
#854=MANIFOLD_SOLID_BREP('Part 4',#820);
#855=MANIFOLD_SOLID_BREP('Part 1',#821);
#856=SHAPE_DEFINITION_REPRESENTATION(#1376,#860);
#857=SHAPE_DEFINITION_REPRESENTATION(#1377,#861);
#858=SHAPE_DEFINITION_REPRESENTATION(#1378,#862);
#859=SHAPE_DEFINITION_REPRESENTATION(#1379,#863);
#860=SHAPE_REPRESENTATION('Part 3',(#864),#1356);
#861=SHAPE_REPRESENTATION('Part 2',(#871),#1357);
#862=SHAPE_REPRESENTATION('Part 4',(#878),#1358);
#863=SHAPE_REPRESENTATION('Part 1',(#885),#1359);
#864=AXIS2_PLACEMENT_3D('',#1122,#914,#915);
#865=AXIS2_PLACEMENT_3D('',#1123,#916,#917);
#866=AXIS2_PLACEMENT_3D('',#1132,#922,#923);
#867=AXIS2_PLACEMENT_3D('',#1138,#927,#928);
#868=AXIS2_PLACEMENT_3D('',#1144,#932,#933);
#869=AXIS2_PLACEMENT_3D('',#1147,#936,#937);
#870=AXIS2_PLACEMENT_3D('',#1148,#938,#939);
#871=AXIS2_PLACEMENT_3D('',#1149,#940,#941);
#872=AXIS2_PLACEMENT_3D('',#1150,#942,#943);
#873=AXIS2_PLACEMENT_3D('',#1159,#948,#949);
#874=AXIS2_PLACEMENT_3D('',#1165,#953,#954);
#875=AXIS2_PLACEMENT_3D('',#1171,#958,#959);
#876=AXIS2_PLACEMENT_3D('',#1174,#962,#963);
#877=AXIS2_PLACEMENT_3D('',#1175,#964,#965);
#878=AXIS2_PLACEMENT_3D('',#1176,#966,#967);
#879=AXIS2_PLACEMENT_3D('',#1177,#968,#969);
#880=AXIS2_PLACEMENT_3D('',#1186,#974,#975);
#881=AXIS2_PLACEMENT_3D('',#1192,#979,#980);
#882=AXIS2_PLACEMENT_3D('',#1198,#984,#985);
#883=AXIS2_PLACEMENT_3D('',#1201,#988,#989);
#884=AXIS2_PLACEMENT_3D('',#1202,#990,#991);
#885=AXIS2_PLACEMENT_3D('',#1203,#992,#993);
#886=AXIS2_PLACEMENT_3D('',#1204,#994,#995);
#887=AXIS2_PLACEMENT_3D('',#1221,#1004,#1005);
#888=AXIS2_PLACEMENT_3D('',#1238,#1014,#1015);
#889=AXIS2_PLACEMENT_3D('',#1244,#1019,#1020);
#890=AXIS2_PLACEMENT_3D('',#1250,#1024,#1025);
#891=AXIS2_PLACEMENT_3D('',#1256,#1029,#1030);
#892=AXIS2_PLACEMENT_3D('',#1262,#1034,#1035);
#893=AXIS2_PLACEMENT_3D('',#1268,#1039,#1040);
#894=AXIS2_PLACEMENT_3D('',#1274,#1044,#1045);
#895=AXIS2_PLACEMENT_3D('',#1280,#1049,#1050);
#896=AXIS2_PLACEMENT_3D('',#1286,#1054,#1055);
#897=AXIS2_PLACEMENT_3D('',#1292,#1059,#1060);
#898=AXIS2_PLACEMENT_3D('',#1298,#1064,#1065);
#899=AXIS2_PLACEMENT_3D('',#1304,#1069,#1070);
#900=AXIS2_PLACEMENT_3D('',#1307,#1073,#1074);
#901=AXIS2_PLACEMENT_3D('',#1313,#1078,#1079);
#902=AXIS2_PLACEMENT_3D('',#1316,#1082,#1083);
#903=AXIS2_PLACEMENT_3D('',#1317,#1084,#1085);
#904=AXIS2_PLACEMENT_3D('',#1318,#1086,#1087);
#905=AXIS2_PLACEMENT_3D('',#1327,#1092,#1093);
#906=AXIS2_PLACEMENT_3D('',#1330,#1096,#1097);
#907=AXIS2_PLACEMENT_3D('',#1333,#1100,#1101);
#908=AXIS2_PLACEMENT_3D('',#1334,#1102,#1103);
#909=AXIS2_PLACEMENT_3D('',#1335,#1104,#1105);
#910=AXIS2_PLACEMENT_3D('',#1341,#1109,#1110);
#911=AXIS2_PLACEMENT_3D('',#1347,#1114,#1115);
#912=AXIS2_PLACEMENT_3D('',#1350,#1118,#1119);
#913=AXIS2_PLACEMENT_3D('',#1351,#1120,#1121);
#914=DIRECTION('',(0.,0.,1.));
#915=DIRECTION('',(1.,0.,0.));
#916=DIRECTION('',(-1.,0.,0.));
#917=DIRECTION('',(0.,0.,1.));
#918=DIRECTION('',(0.,1.,0.));
#919=DIRECTION('',(0.,0.,-1.));
#920=DIRECTION('',(0.,1.,0.));
#921=DIRECTION('',(0.,0.,-1.));
#922=DIRECTION('',(0.945956267210547,-0.324294219074421,0.));
#923=DIRECTION('',(0.324294219074421,0.945956267210547,0.));
#924=DIRECTION('',(-0.324294219074421,-0.945956267210547,0.));
#925=DIRECTION('',(0.,0.,-1.));
#926=DIRECTION('',(-0.324294219074421,-0.945956267210547,0.));
#927=DIRECTION('',(0.,1.,0.));
#928=DIRECTION('',(0.,0.,1.));
#929=DIRECTION('',(1.,0.,0.));
#930=DIRECTION('',(0.,0.,-1.));
#931=DIRECTION('',(1.,0.,0.));
#932=DIRECTION('',(-0.945961871326543,0.324277871579894,0.));
#933=DIRECTION('',(-0.324277871579894,-0.945961871326543,0.));
#934=DIRECTION('',(0.324277871579894,0.945961871326543,0.));
#935=DIRECTION('',(0.324277871579894,0.945961871326543,0.));
#936=DIRECTION('',(0.,0.,1.));
#937=DIRECTION('',(1.,0.,0.));
#938=DIRECTION('',(0.,0.,1.));
#939=DIRECTION('',(1.,0.,0.));
#940=DIRECTION('',(0.,0.,1.));
#941=DIRECTION('',(1.,0.,0.));
#942=DIRECTION('',(0.,1.,0.));
#943=DIRECTION('',(0.,0.,1.));
#944=DIRECTION('',(1.,0.,0.));
#945=DIRECTION('',(0.,0.,-1.));
#946=DIRECTION('',(1.,0.,0.));
#947=DIRECTION('',(0.,0.,-1.));
#948=DIRECTION('',(-0.945945945945945,0.324324324324326,0.));
#949=DIRECTION('',(-0.324324324324326,-0.945945945945945,0.));
#950=DIRECTION('',(0.324324324324326,0.945945945945946,0.));
#951=DIRECTION('',(0.,0.,-1.));
#952=DIRECTION('',(0.324324324324326,0.945945945945946,0.));
#953=DIRECTION('',(0.,-1.,0.));
#954=DIRECTION('',(0.,0.,-1.));
#955=DIRECTION('',(-1.,0.,0.));
#956=DIRECTION('',(0.,0.,-1.));
#957=DIRECTION('',(-1.,0.,0.));
#958=DIRECTION('',(0.945945945945945,-0.324324324324326,0.));
#959=DIRECTION('',(0.324324324324326,0.945945945945945,0.));
#960=DIRECTION('',(-0.324324324324326,-0.945945945945946,0.));
#961=DIRECTION('',(-0.324324324324326,-0.945945945945946,0.));
#962=DIRECTION('',(0.,0.,1.));
#963=DIRECTION('',(1.,0.,0.));
#964=DIRECTION('',(0.,0.,1.));
#965=DIRECTION('',(1.,0.,0.));
#966=DIRECTION('',(0.,0.,1.));
#967=DIRECTION('',(1.,0.,0.));
#968=DIRECTION('',(1.,0.,0.));
#969=DIRECTION('',(0.,0.,1.));
#970=DIRECTION('',(0.,1.,0.));
#971=DIRECTION('',(0.,0.,-1.));
#972=DIRECTION('',(0.,1.,0.));
#973=DIRECTION('',(0.,0.,-1.));
#974=DIRECTION('',(-0.945945945945946,-0.324324324324325,0.));
#975=DIRECTION('',(-0.324324324324325,0.945945945945946,0.));
#976=DIRECTION('',(0.324324324324325,-0.945945945945946,0.));
#977=DIRECTION('',(0.324324324324325,-0.945945945945946,0.));
#978=DIRECTION('',(0.,0.,-1.));
#979=DIRECTION('',(-1.,0.,0.));
#980=DIRECTION('',(0.,0.,-1.));
#981=DIRECTION('',(0.,-1.,0.));
#982=DIRECTION('',(0.,-1.,0.));
#983=DIRECTION('',(0.,0.,-1.));
#984=DIRECTION('',(0.945945945945946,0.324324324324324,0.));
#985=DIRECTION('',(0.324324324324325,-0.945945945945946,0.));
#986=DIRECTION('',(-0.324324324324325,0.945945945945946,0.));
#987=DIRECTION('',(-0.324324324324325,0.945945945945946,0.));
#988=DIRECTION('',(0.,0.,1.));
#989=DIRECTION('',(-1.,0.,0.));
#990=DIRECTION('',(0.,0.,1.));
#991=DIRECTION('',(-1.,0.,0.));
#992=DIRECTION('',(0.,0.,1.));
#993=DIRECTION('',(1.,0.,0.));
#994=DIRECTION('',(0.,-1.,0.));
#995=DIRECTION('',(0.,0.,-1.));
#996=DIRECTION('',(-1.,0.,0.));
#997=DIRECTION('',(0.,0.,-1.));
#998=DIRECTION('',(-1.,0.,0.));
#999=DIRECTION('',(0.,0.,-1.));
#1000=DIRECTION('',(1.,0.,0.));
#1001=DIRECTION('',(0.,0.,-1.));
#1002=DIRECTION('',(1.,0.,0.));
#1003=DIRECTION('',(0.,0.,-1.));
#1004=DIRECTION('',(-1.,0.,0.));
#1005=DIRECTION('',(0.,0.,1.));
#1006=DIRECTION('',(0.,1.,0.));
#1007=DIRECTION('',(0.,0.,-1.));
#1008=DIRECTION('',(0.,1.,0.));
#1009=DIRECTION('',(0.,0.,-1.));
#1010=DIRECTION('',(0.,-1.,0.));
#1011=DIRECTION('',(0.,0.,-1.));
#1012=DIRECTION('',(0.,-1.,0.));
#1013=DIRECTION('',(0.,0.,-1.));
#1014=DIRECTION('',(-1.,0.,0.));
#1015=DIRECTION('',(0.,0.,1.));
#1016=DIRECTION('',(0.,1.,0.));
#1017=DIRECTION('',(0.,0.,-1.));
#1018=DIRECTION('',(0.,1.,0.));
#1019=DIRECTION('',(0.,-1.,0.));
#1020=DIRECTION('',(0.,0.,-1.));
#1021=DIRECTION('',(-1.,0.,0.));
#1022=DIRECTION('',(0.,0.,-1.));
#1023=DIRECTION('',(-1.,0.,0.));
#1024=DIRECTION('',(1.,0.,0.));
#1025=DIRECTION('',(0.,0.,-1.));
#1026=DIRECTION('',(0.,-1.,0.));
#1027=DIRECTION('',(0.,0.,-1.));
#1028=DIRECTION('',(0.,-1.,0.));
#1029=DIRECTION('',(0.,-1.,0.));
#1030=DIRECTION('',(0.,0.,-1.));
#1031=DIRECTION('',(-1.,0.,0.));
#1032=DIRECTION('',(0.,0.,-1.));
#1033=DIRECTION('',(-1.,0.,0.));
#1034=DIRECTION('',(1.,0.,0.));
#1035=DIRECTION('',(0.,0.,-1.));
#1036=DIRECTION('',(0.,-1.,0.));
#1037=DIRECTION('',(0.,0.,-1.));
#1038=DIRECTION('',(0.,-1.,0.));
#1039=DIRECTION('',(0.,-1.,0.));
#1040=DIRECTION('',(0.,0.,-1.));
#1041=DIRECTION('',(-1.,0.,0.));
#1042=DIRECTION('',(0.,0.,-1.));
#1043=DIRECTION('',(-1.,0.,0.));
#1044=DIRECTION('',(1.,0.,0.));
#1045=DIRECTION('',(0.,0.,-1.));
#1046=DIRECTION('',(0.,-1.,0.));
#1047=DIRECTION('',(0.,0.,-1.));
#1048=DIRECTION('',(0.,-1.,0.));
#1049=DIRECTION('',(0.,-1.,0.));
#1050=DIRECTION('',(0.,0.,-1.));
#1051=DIRECTION('',(-1.,0.,0.));
#1052=DIRECTION('',(0.,0.,-1.));
#1053=DIRECTION('',(-1.,0.,0.));
#1054=DIRECTION('',(1.,0.,0.));
#1055=DIRECTION('',(0.,0.,-1.));
#1056=DIRECTION('',(0.,-1.,0.));
#1057=DIRECTION('',(0.,0.,-1.));
#1058=DIRECTION('',(0.,-1.,0.));
#1059=DIRECTION('',(0.,-1.,0.));
#1060=DIRECTION('',(0.,0.,-1.));
#1061=DIRECTION('',(-1.,0.,0.));
#1062=DIRECTION('',(0.,0.,-1.));
#1063=DIRECTION('',(-1.,0.,0.));
#1064=DIRECTION('',(-1.,0.,0.));
#1065=DIRECTION('',(0.,0.,1.));
#1066=DIRECTION('',(0.,1.,0.));
#1067=DIRECTION('',(0.,0.,-1.));
#1068=DIRECTION('',(0.,1.,0.));
#1069=DIRECTION('',(0.,1.,0.));
#1070=DIRECTION('',(0.,0.,1.));
#1071=DIRECTION('',(1.,0.,0.));
#1072=DIRECTION('',(1.,0.,0.));
#1073=DIRECTION('',(0.,-1.,0.));
#1074=DIRECTION('',(0.,0.,-1.));
#1075=DIRECTION('',(-1.,0.,0.));
#1076=DIRECTION('',(0.,0.,-1.));
#1077=DIRECTION('',(-1.,0.,0.));
#1078=DIRECTION('',(1.,0.,0.));
#1079=DIRECTION('',(0.,0.,-1.));
#1080=DIRECTION('',(0.,-1.,0.));
#1081=DIRECTION('',(0.,-1.,0.));
#1082=DIRECTION('',(0.,0.,1.));
#1083=DIRECTION('',(1.,0.,0.));
#1084=DIRECTION('',(0.,0.,1.));
#1085=DIRECTION('',(1.,0.,0.));
#1086=DIRECTION('',(-1.,0.,0.));
#1087=DIRECTION('',(0.,0.,1.));
#1088=DIRECTION('',(0.,1.,0.));
#1089=DIRECTION('',(0.,0.,-1.));
#1090=DIRECTION('',(0.,1.,0.));
#1091=DIRECTION('',(0.,0.,-1.));
#1092=DIRECTION('',(0.945945945945946,-0.324324324324325,0.));
#1093=DIRECTION('',(0.324324324324325,0.945945945945946,0.));
#1094=DIRECTION('',(-0.324324324324325,-0.945945945945946,0.));
#1095=DIRECTION('',(-0.324324324324325,-0.945945945945946,0.));
#1096=DIRECTION('',(-0.945945945945946,0.324324324324324,0.));
#1097=DIRECTION('',(-0.324324324324325,-0.945945945945946,0.));
#1098=DIRECTION('',(0.324324324324325,0.945945945945946,0.));
#1099=DIRECTION('',(0.324324324324325,0.945945945945946,0.));
#1100=DIRECTION('',(0.,0.,1.));
#1101=DIRECTION('',(1.,0.,0.));
#1102=DIRECTION('',(0.,0.,1.));
#1103=DIRECTION('',(1.,0.,0.));
#1104=DIRECTION('',(-0.945945945945945,0.324324324324326,0.));
#1105=DIRECTION('',(-0.324324324324326,-0.945945945945945,0.));
#1106=DIRECTION('',(0.324324324324326,0.945945945945946,0.));
#1107=DIRECTION('',(0.324324324324326,0.945945945945946,0.));
#1108=DIRECTION('',(0.,0.,-1.));
#1109=DIRECTION('',(0.,-1.,0.));
#1110=DIRECTION('',(0.,0.,-1.));
#1111=DIRECTION('',(-1.,0.,0.));
#1112=DIRECTION('',(-1.,0.,0.));
#1113=DIRECTION('',(0.,0.,-1.));
#1114=DIRECTION('',(0.945945945945945,-0.324324324324326,0.));
#1115=DIRECTION('',(0.324324324324326,0.945945945945945,0.));
#1116=DIRECTION('',(-0.324324324324326,-0.945945945945946,0.));
#1117=DIRECTION('',(-0.324324324324326,-0.945945945945946,0.));
#1118=DIRECTION('',(0.,0.,1.));
#1119=DIRECTION('',(1.,0.,0.));
#1120=DIRECTION('',(0.,0.,1.));
#1121=DIRECTION('',(1.,0.,0.));
#1122=CARTESIAN_POINT('',(0.,0.,0.));
#1123=CARTESIAN_POINT('',(-0.017,0.06421,0.02));
#1124=CARTESIAN_POINT('',(-0.017,0.06421,0.));
#1125=CARTESIAN_POINT('',(-0.017,0.05342,0.));
#1126=CARTESIAN_POINT('',(-0.017,0.075,0.));
#1127=CARTESIAN_POINT('',(-0.017,0.075,0.02));
#1128=CARTESIAN_POINT('',(-0.017,0.075,0.02));
#1129=CARTESIAN_POINT('',(-0.017,0.06421,0.02));
#1130=CARTESIAN_POINT('',(-0.017,0.05342,0.02));
#1131=CARTESIAN_POINT('',(-0.017,0.05342,0.02));
#1132=CARTESIAN_POINT('',(-0.037655,0.01475,0.02));
#1133=CARTESIAN_POINT('',(-0.037655,0.01475,0.));
#1134=CARTESIAN_POINT('',(-0.05831,-0.0455,0.));
#1135=CARTESIAN_POINT('',(-0.05831,-0.0455,0.02));
#1136=CARTESIAN_POINT('',(-0.05831,-0.0455,0.02));
#1137=CARTESIAN_POINT('',(-0.037655,0.01475,0.02));
#1138=CARTESIAN_POINT('',(-0.05461,-0.0455,0.02));
#1139=CARTESIAN_POINT('',(-0.05461,-0.0455,0.));
#1140=CARTESIAN_POINT('',(-0.05091,-0.0455,0.));
#1141=CARTESIAN_POINT('',(-0.05091,-0.0455,0.02));
#1142=CARTESIAN_POINT('',(-0.05091,-0.0455,0.02));
#1143=CARTESIAN_POINT('',(-0.05461,-0.0455,0.02));
#1144=CARTESIAN_POINT('',(-0.033955,0.00396,0.02));
#1145=CARTESIAN_POINT('',(-0.033955,0.00396,0.));
#1146=CARTESIAN_POINT('',(-0.033955,0.00396,0.02));
#1147=CARTESIAN_POINT('',(-0.037655,0.01475,0.02));
#1148=CARTESIAN_POINT('',(-0.037655,0.01475,0.));
#1149=CARTESIAN_POINT('',(0.,0.,0.));
#1150=CARTESIAN_POINT('',(-0.05276,-0.0455,0.016));
#1151=CARTESIAN_POINT('',(-0.05276,-0.0455,0.004));
#1152=CARTESIAN_POINT('',(-0.05461,-0.0455,0.004));
#1153=CARTESIAN_POINT('',(-0.05091,-0.0455,0.004));
#1154=CARTESIAN_POINT('',(-0.05461,-0.0455,0.016));
#1155=CARTESIAN_POINT('',(-0.05461,-0.0455,0.016));
#1156=CARTESIAN_POINT('',(-0.05276,-0.0455,0.016));
#1157=CARTESIAN_POINT('',(-0.05091,-0.0455,0.016));
#1158=CARTESIAN_POINT('',(-0.05091,-0.0455,0.016));
#1159=CARTESIAN_POINT('',(-0.05521,-0.04725,0.016));
#1160=CARTESIAN_POINT('',(-0.05521,-0.04725,0.004));
#1161=CARTESIAN_POINT('',(-0.05581,-0.049,0.004));
#1162=CARTESIAN_POINT('',(-0.05581,-0.049,0.016));
#1163=CARTESIAN_POINT('',(-0.05581,-0.049,0.016));
#1164=CARTESIAN_POINT('',(-0.05521,-0.04725,0.016));
#1165=CARTESIAN_POINT('',(-0.05396,-0.049,0.016));
#1166=CARTESIAN_POINT('',(-0.05396,-0.049,0.004));
#1167=CARTESIAN_POINT('',(-0.05211,-0.049,0.004));
#1168=CARTESIAN_POINT('',(-0.05211,-0.049,0.016));
#1169=CARTESIAN_POINT('',(-0.05211,-0.049,0.016));
#1170=CARTESIAN_POINT('',(-0.05396,-0.049,0.016));
#1171=CARTESIAN_POINT('',(-0.05151,-0.04725,0.016));
#1172=CARTESIAN_POINT('',(-0.05151,-0.04725,0.004));
#1173=CARTESIAN_POINT('',(-0.05151,-0.04725,0.016));
#1174=CARTESIAN_POINT('',(-0.034905,0.011585,0.016));
#1175=CARTESIAN_POINT('',(-0.034905,0.011585,0.004));
#1176=CARTESIAN_POINT('',(0.,0.,0.));
#1177=CARTESIAN_POINT('',(0.014,0.06717,0.016));
#1178=CARTESIAN_POINT('',(0.014,0.06717,0.004));
#1179=CARTESIAN_POINT('',(0.014,0.06217,0.004));
#1180=CARTESIAN_POINT('',(0.014,0.07217,0.004));
#1181=CARTESIAN_POINT('',(0.014,0.06217,0.016));
#1182=CARTESIAN_POINT('',(0.014,0.06217,0.016));
#1183=CARTESIAN_POINT('',(0.014,0.06717,0.016));
#1184=CARTESIAN_POINT('',(0.014,0.07217,0.016));
#1185=CARTESIAN_POINT('',(0.014,0.07217,0.016));
#1186=CARTESIAN_POINT('',(0.0155,0.067795,0.016));
#1187=CARTESIAN_POINT('',(0.0155,0.067795,0.004));
#1188=CARTESIAN_POINT('',(0.017,0.06342,0.004));
#1189=CARTESIAN_POINT('',(0.0155,0.067795,0.016));
#1190=CARTESIAN_POINT('',(0.017,0.06342,0.016));
#1191=CARTESIAN_POINT('',(0.017,0.06342,0.016));
#1192=CARTESIAN_POINT('',(0.017,0.05842,0.016));
#1193=CARTESIAN_POINT('',(0.017,0.05842,0.004));
#1194=CARTESIAN_POINT('',(0.017,0.05342,0.004));
#1195=CARTESIAN_POINT('',(0.017,0.05842,0.016));
#1196=CARTESIAN_POINT('',(0.017,0.05342,0.016));
#1197=CARTESIAN_POINT('',(0.017,0.05342,0.016));
#1198=CARTESIAN_POINT('',(0.0155,0.057795,0.016));
#1199=CARTESIAN_POINT('',(0.0155,0.057795,0.004));
#1200=CARTESIAN_POINT('',(0.0155,0.057795,0.016));
#1201=CARTESIAN_POINT('',(0.034905,0.011585,0.016));
#1202=CARTESIAN_POINT('',(0.034905,0.011585,0.004));
#1203=CARTESIAN_POINT('',(0.,0.,0.));
#1204=CARTESIAN_POINT('',(-0.029205,-0.0455,0.02));
#1205=CARTESIAN_POINT('',(-0.029205,-0.0455,0.));
#1206=CARTESIAN_POINT('',(-0.0075,-0.0455,0.));
#1207=CARTESIAN_POINT('',(-0.0625,-0.0455,0.));
#1208=CARTESIAN_POINT('',(-0.0625,-0.0455,0.02));
#1209=CARTESIAN_POINT('',(-0.0625,-0.0455,0.02));
#1210=CARTESIAN_POINT('',(-0.029205,-0.0455,0.02));
#1211=CARTESIAN_POINT('',(-0.0075,-0.0455,0.02));
#1212=CARTESIAN_POINT('',(-0.0075,-0.0455,0.02));
#1213=CARTESIAN_POINT('',(-0.05276,-0.0455,0.016));
#1214=CARTESIAN_POINT('',(-0.05461,-0.0455,0.016));
#1215=CARTESIAN_POINT('',(-0.05091,-0.0455,0.016));
#1216=CARTESIAN_POINT('',(-0.05461,-0.0455,0.016));
#1217=CARTESIAN_POINT('',(-0.05461,-0.0455,0.004));
#1218=CARTESIAN_POINT('',(-0.05276,-0.0455,0.004));
#1219=CARTESIAN_POINT('',(-0.05091,-0.0455,0.004));
#1220=CARTESIAN_POINT('',(-0.05091,-0.0455,0.016));
#1221=CARTESIAN_POINT('',(-0.017,0.05,0.02));
#1222=CARTESIAN_POINT('',(-0.017,0.05,0.));
#1223=CARTESIAN_POINT('',(-0.017,0.018,0.));
#1224=CARTESIAN_POINT('',(-0.017,0.075,0.));
#1225=CARTESIAN_POINT('',(-0.017,0.018,0.02));
#1226=CARTESIAN_POINT('',(-0.017,0.018,0.02));
#1227=CARTESIAN_POINT('',(-0.017,0.05,0.02));
#1228=CARTESIAN_POINT('',(-0.017,0.075,0.02));
#1229=CARTESIAN_POINT('',(-0.017,0.075,0.02));
#1230=CARTESIAN_POINT('',(-0.017,0.05842,0.016));
#1231=CARTESIAN_POINT('',(-0.017,0.06342,0.016));
#1232=CARTESIAN_POINT('',(-0.017,0.05342,0.016));
#1233=CARTESIAN_POINT('',(-0.017,0.05342,0.016));
#1234=CARTESIAN_POINT('',(-0.017,0.05342,0.004));
#1235=CARTESIAN_POINT('',(-0.017,0.05842,0.004));
#1236=CARTESIAN_POINT('',(-0.017,0.06342,0.004));
#1237=CARTESIAN_POINT('',(-0.017,0.06342,0.016));
#1238=CARTESIAN_POINT('',(-0.0625,-0.049,0.02));
#1239=CARTESIAN_POINT('',(-0.0625,-0.049,0.));
#1240=CARTESIAN_POINT('',(-0.0625,-0.0525,0.));
#1241=CARTESIAN_POINT('',(-0.0625,-0.0525,0.02));
#1242=CARTESIAN_POINT('',(-0.0625,-0.0525,0.02));
#1243=CARTESIAN_POINT('',(-0.0625,-0.049,0.02));
#1244=CARTESIAN_POINT('',(-0.035,-0.0525,0.02));
#1245=CARTESIAN_POINT('',(-0.035,-0.0525,0.));
#1246=CARTESIAN_POINT('',(-0.0075,-0.0525,0.));
#1247=CARTESIAN_POINT('',(-0.0075,-0.0525,0.02));
#1248=CARTESIAN_POINT('',(-0.0075,-0.0525,0.02));
#1249=CARTESIAN_POINT('',(-0.035,-0.0525,0.02));
#1250=CARTESIAN_POINT('',(-0.0075,-0.06375,0.02));
#1251=CARTESIAN_POINT('',(-0.0075,-0.06375,0.));
#1252=CARTESIAN_POINT('',(-0.0075,-0.075,0.));
#1253=CARTESIAN_POINT('',(-0.0075,-0.075,0.02));
#1254=CARTESIAN_POINT('',(-0.0075,-0.075,0.02));
#1255=CARTESIAN_POINT('',(-0.0075,-0.06375,0.02));
#1256=CARTESIAN_POINT('',(-0.035,-0.075,0.02));
#1257=CARTESIAN_POINT('',(-0.035,-0.075,0.));
#1258=CARTESIAN_POINT('',(-0.0625,-0.075,0.));
#1259=CARTESIAN_POINT('',(-0.0625,-0.075,0.02));
#1260=CARTESIAN_POINT('',(-0.0625,-0.075,0.02));
#1261=CARTESIAN_POINT('',(-0.035,-0.075,0.02));
#1262=CARTESIAN_POINT('',(-0.0625,-0.0825,0.02));
#1263=CARTESIAN_POINT('',(-0.0625,-0.0825,0.));
#1264=CARTESIAN_POINT('',(-0.0625,-0.09,0.));
#1265=CARTESIAN_POINT('',(-0.0625,-0.09,0.02));
#1266=CARTESIAN_POINT('',(-0.0625,-0.09,0.02));
#1267=CARTESIAN_POINT('',(-0.0625,-0.0825,0.02));
#1268=CARTESIAN_POINT('',(-0.0275,-0.09,0.02));
#1269=CARTESIAN_POINT('',(-0.0275,-0.09,0.));
#1270=CARTESIAN_POINT('',(0.0075,-0.09,0.));
#1271=CARTESIAN_POINT('',(0.0075,-0.09,0.02));
#1272=CARTESIAN_POINT('',(0.0075,-0.09,0.02));
#1273=CARTESIAN_POINT('',(-0.0275,-0.09,0.02));
#1274=CARTESIAN_POINT('',(0.0075,-0.0825,0.02));
#1275=CARTESIAN_POINT('',(0.0075,-0.0825,0.));
#1276=CARTESIAN_POINT('',(0.0075,0.075,0.));
#1277=CARTESIAN_POINT('',(0.0075,0.075,0.02));
#1278=CARTESIAN_POINT('',(0.0075,0.075,0.02));
#1279=CARTESIAN_POINT('',(0.0075,-0.0825,0.02));
#1280=CARTESIAN_POINT('',(0.,0.075,0.02));
#1281=CARTESIAN_POINT('',(0.,0.075,0.));
#1282=CARTESIAN_POINT('',(-0.0075,0.075,0.));
#1283=CARTESIAN_POINT('',(-0.0075,0.075,0.02));
#1284=CARTESIAN_POINT('',(-0.0075,0.075,0.02));
#1285=CARTESIAN_POINT('',(0.,0.075,0.02));
#1286=CARTESIAN_POINT('',(-0.0075,0.05,0.02));
#1287=CARTESIAN_POINT('',(-0.0075,0.05,0.));
#1288=CARTESIAN_POINT('',(-0.0075,0.025,0.));
#1289=CARTESIAN_POINT('',(-0.0075,0.025,0.02));
#1290=CARTESIAN_POINT('',(-0.0075,0.025,0.02));
#1291=CARTESIAN_POINT('',(-0.0075,0.05,0.02));
#1292=CARTESIAN_POINT('',(-0.00875,0.025,0.02));
#1293=CARTESIAN_POINT('',(-0.00875,0.025,0.));
#1294=CARTESIAN_POINT('',(-0.01,0.025,0.));
#1295=CARTESIAN_POINT('',(-0.01,0.025,0.02));
#1296=CARTESIAN_POINT('',(-0.01,0.025,0.02));
#1297=CARTESIAN_POINT('',(-0.00875,0.025,0.02));
#1298=CARTESIAN_POINT('',(-0.01,0.05,0.02));
#1299=CARTESIAN_POINT('',(-0.01,0.05,0.));
#1300=CARTESIAN_POINT('',(-0.01,0.075,0.));
#1301=CARTESIAN_POINT('',(-0.01,0.075,0.02));
#1302=CARTESIAN_POINT('',(-0.01,0.075,0.02));
#1303=CARTESIAN_POINT('',(-0.01,0.05,0.02));
#1304=CARTESIAN_POINT('',(-0.0135,0.075,0.02));
#1305=CARTESIAN_POINT('',(-0.0135,0.075,0.));
#1306=CARTESIAN_POINT('',(-0.0135,0.075,0.02));
#1307=CARTESIAN_POINT('',(-0.01225,0.018,0.02));
#1308=CARTESIAN_POINT('',(-0.01225,0.018,0.));
#1309=CARTESIAN_POINT('',(-0.0075,0.018,0.));
#1310=CARTESIAN_POINT('',(-0.0075,0.018,0.02));
#1311=CARTESIAN_POINT('',(-0.0075,0.018,0.02));
#1312=CARTESIAN_POINT('',(-0.01225,0.018,0.02));
#1313=CARTESIAN_POINT('',(-0.0075,-0.01375,0.02));
#1314=CARTESIAN_POINT('',(-0.0075,-0.01375,0.));
#1315=CARTESIAN_POINT('',(-0.0075,-0.01375,0.02));
#1316=CARTESIAN_POINT('',(-0.0275,-0.0075,0.02));
#1317=CARTESIAN_POINT('',(-0.0275,-0.0075,0.));
#1318=CARTESIAN_POINT('',(-0.014,0.06717,0.016));
#1319=CARTESIAN_POINT('',(-0.014,0.06717,0.004));
#1320=CARTESIAN_POINT('',(-0.014,0.06217,0.004));
#1321=CARTESIAN_POINT('',(-0.014,0.07217,0.004));
#1322=CARTESIAN_POINT('',(-0.014,0.06217,0.016));
#1323=CARTESIAN_POINT('',(-0.014,0.06217,0.016));
#1324=CARTESIAN_POINT('',(-0.014,0.06717,0.016));
#1325=CARTESIAN_POINT('',(-0.014,0.07217,0.016));
#1326=CARTESIAN_POINT('',(-0.014,0.07217,0.016));
#1327=CARTESIAN_POINT('',(-0.0155,0.067795,0.016));
#1328=CARTESIAN_POINT('',(-0.0155,0.067795,0.004));
#1329=CARTESIAN_POINT('',(-0.0155,0.067795,0.016));
#1330=CARTESIAN_POINT('',(-0.0155,0.057795,0.016));
#1331=CARTESIAN_POINT('',(-0.0155,0.057795,0.004));
#1332=CARTESIAN_POINT('',(-0.0155,0.057795,0.016));
#1333=CARTESIAN_POINT('',(-0.034905,0.011585,0.016));
#1334=CARTESIAN_POINT('',(-0.034905,0.011585,0.004));
#1335=CARTESIAN_POINT('',(-0.05521,-0.04725,0.016));
#1336=CARTESIAN_POINT('',(-0.05521,-0.04725,0.004));
#1337=CARTESIAN_POINT('',(-0.05581,-0.049,0.004));
#1338=CARTESIAN_POINT('',(-0.05521,-0.04725,0.016));
#1339=CARTESIAN_POINT('',(-0.05581,-0.049,0.016));
#1340=CARTESIAN_POINT('',(-0.05581,-0.049,0.016));
#1341=CARTESIAN_POINT('',(-0.05396,-0.049,0.016));
#1342=CARTESIAN_POINT('',(-0.05396,-0.049,0.004));
#1343=CARTESIAN_POINT('',(-0.05211,-0.049,0.004));
#1344=CARTESIAN_POINT('',(-0.05396,-0.049,0.016));
#1345=CARTESIAN_POINT('',(-0.05211,-0.049,0.016));
#1346=CARTESIAN_POINT('',(-0.05211,-0.049,0.016));
#1347=CARTESIAN_POINT('',(-0.05151,-0.04725,0.016));
#1348=CARTESIAN_POINT('',(-0.05151,-0.04725,0.004));
#1349=CARTESIAN_POINT('',(-0.05151,-0.04725,0.016));
#1350=CARTESIAN_POINT('',(-0.034905,0.011585,0.016));
#1351=CARTESIAN_POINT('',(-0.034905,0.011585,0.004));
#1352=MECHANICAL_DESIGN_GEOMETRIC_PRESENTATION_REPRESENTATION('',(#822),
#1356);
#1353=MECHANICAL_DESIGN_GEOMETRIC_PRESENTATION_REPRESENTATION('',(#823),
#1357);
#1354=MECHANICAL_DESIGN_GEOMETRIC_PRESENTATION_REPRESENTATION('',(#824),
#1358);
#1355=MECHANICAL_DESIGN_GEOMETRIC_PRESENTATION_REPRESENTATION('',(#825),
#1359);
#1356=(
GEOMETRIC_REPRESENTATION_CONTEXT(3)
GLOBAL_UNCERTAINTY_ASSIGNED_CONTEXT((#1360))
GLOBAL_UNIT_ASSIGNED_CONTEXT((#1372,#1368,#1364))
REPRESENTATION_CONTEXT('Part 3','TOP_LEVEL_ASSEMBLY_PART')
);
#1357=(
GEOMETRIC_REPRESENTATION_CONTEXT(3)
GLOBAL_UNCERTAINTY_ASSIGNED_CONTEXT((#1361))
GLOBAL_UNIT_ASSIGNED_CONTEXT((#1373,#1369,#1365))
REPRESENTATION_CONTEXT('Part 2','TOP_LEVEL_ASSEMBLY_PART')
);
#1358=(
GEOMETRIC_REPRESENTATION_CONTEXT(3)
GLOBAL_UNCERTAINTY_ASSIGNED_CONTEXT((#1362))
GLOBAL_UNIT_ASSIGNED_CONTEXT((#1374,#1370,#1366))
REPRESENTATION_CONTEXT('Part 4','TOP_LEVEL_ASSEMBLY_PART')
);
#1359=(
GEOMETRIC_REPRESENTATION_CONTEXT(3)
GLOBAL_UNCERTAINTY_ASSIGNED_CONTEXT((#1363))
GLOBAL_UNIT_ASSIGNED_CONTEXT((#1375,#1371,#1367))
REPRESENTATION_CONTEXT('Part 1','TOP_LEVEL_ASSEMBLY_PART')
);
#1360=UNCERTAINTY_MEASURE_WITH_UNIT(LENGTH_MEASURE(1.E-8),#1372,
'DISTANCE_ACCURACY_VALUE','Maximum Tolerance applied to model');
#1361=UNCERTAINTY_MEASURE_WITH_UNIT(LENGTH_MEASURE(1.E-8),#1373,
'DISTANCE_ACCURACY_VALUE','Maximum Tolerance applied to model');
#1362=UNCERTAINTY_MEASURE_WITH_UNIT(LENGTH_MEASURE(1.E-8),#1374,
'DISTANCE_ACCURACY_VALUE','Maximum Tolerance applied to model');
#1363=UNCERTAINTY_MEASURE_WITH_UNIT(LENGTH_MEASURE(1.E-8),#1375,
'DISTANCE_ACCURACY_VALUE','Maximum Tolerance applied to model');
#1364=(
NAMED_UNIT(*)
SI_UNIT($,.STERADIAN.)
SOLID_ANGLE_UNIT()
);
#1365=(
NAMED_UNIT(*)
SI_UNIT($,.STERADIAN.)
SOLID_ANGLE_UNIT()
);
#1366=(
NAMED_UNIT(*)
SI_UNIT($,.STERADIAN.)
SOLID_ANGLE_UNIT()
);
#1367=(
NAMED_UNIT(*)
SI_UNIT($,.STERADIAN.)
SOLID_ANGLE_UNIT()
);
#1368=(
NAMED_UNIT(*)
PLANE_ANGLE_UNIT()
SI_UNIT($,.RADIAN.)
);
#1369=(
NAMED_UNIT(*)
PLANE_ANGLE_UNIT()
SI_UNIT($,.RADIAN.)
);
#1370=(
NAMED_UNIT(*)
PLANE_ANGLE_UNIT()
SI_UNIT($,.RADIAN.)
);
#1371=(
NAMED_UNIT(*)
PLANE_ANGLE_UNIT()
SI_UNIT($,.RADIAN.)
);
#1372=(
LENGTH_UNIT()
NAMED_UNIT(*)
SI_UNIT($,.METRE.)
);
#1373=(
LENGTH_UNIT()
NAMED_UNIT(*)
SI_UNIT($,.METRE.)
);
#1374=(
LENGTH_UNIT()
NAMED_UNIT(*)
SI_UNIT($,.METRE.)
);
#1375=(
LENGTH_UNIT()
NAMED_UNIT(*)
SI_UNIT($,.METRE.)
);
#1376=PRODUCT_DEFINITION_SHAPE('','',#1380);
#1377=PRODUCT_DEFINITION_SHAPE('','',#1381);
#1378=PRODUCT_DEFINITION_SHAPE('','',#1382);
#1379=PRODUCT_DEFINITION_SHAPE('','',#1383);
#1380=PRODUCT_DEFINITION('','',#1388,#1384);
#1381=PRODUCT_DEFINITION('','',#1389,#1385);
#1382=PRODUCT_DEFINITION('','',#1390,#1386);
#1383=PRODUCT_DEFINITION('','',#1391,#1387);
#1384=PRODUCT_DEFINITION_CONTEXT('',#1412,'design');
#1385=PRODUCT_DEFINITION_CONTEXT('',#1413,'design');
#1386=PRODUCT_DEFINITION_CONTEXT('',#1414,'design');
#1387=PRODUCT_DEFINITION_CONTEXT('',#1415,'design');
#1388=PRODUCT_DEFINITION_FORMATION_WITH_SPECIFIED_SOURCE('','',#1396,
 .NOT_KNOWN.);
#1389=PRODUCT_DEFINITION_FORMATION_WITH_SPECIFIED_SOURCE('','',#1397,
 .NOT_KNOWN.);
#1390=PRODUCT_DEFINITION_FORMATION_WITH_SPECIFIED_SOURCE('','',#1398,
 .NOT_KNOWN.);
#1391=PRODUCT_DEFINITION_FORMATION_WITH_SPECIFIED_SOURCE('','',#1399,
 .NOT_KNOWN.);
#1392=PRODUCT_RELATED_PRODUCT_CATEGORY('','',(#1396));
#1393=PRODUCT_RELATED_PRODUCT_CATEGORY('','',(#1397));
#1394=PRODUCT_RELATED_PRODUCT_CATEGORY('','',(#1398));
#1395=PRODUCT_RELATED_PRODUCT_CATEGORY('','',(#1399));
#1396=PRODUCT('Part 3','Part 3','Part 3',(#1404));
#1397=PRODUCT('Part 2','Part 2','Part 2',(#1405));
#1398=PRODUCT('Part 4','Part 4','Part 4',(#1406));
#1399=PRODUCT('Part 1','Part 1','Part 1',(#1407));
#1400=PRODUCT_CATEGORY('','');
#1401=PRODUCT_CATEGORY('','');
#1402=PRODUCT_CATEGORY('','');
#1403=PRODUCT_CATEGORY('','');
#1404=PRODUCT_CONTEXT('',#1412,'mechanical');
#1405=PRODUCT_CONTEXT('',#1413,'mechanical');
#1406=PRODUCT_CONTEXT('',#1414,'mechanical');
#1407=PRODUCT_CONTEXT('',#1415,'mechanical');
#1408=APPLICATION_PROTOCOL_DEFINITION('international standard',
'ap242_managed_model_based_3d_engineering',2020,#1412);
#1409=APPLICATION_PROTOCOL_DEFINITION('international standard',
'ap242_managed_model_based_3d_engineering',2020,#1413);
#1410=APPLICATION_PROTOCOL_DEFINITION('international standard',
'ap242_managed_model_based_3d_engineering',2020,#1414);
#1411=APPLICATION_PROTOCOL_DEFINITION('international standard',
'ap242_managed_model_based_3d_engineering',2020,#1415);
#1412=APPLICATION_CONTEXT('managed model based 3d engineering');
#1413=APPLICATION_CONTEXT('managed model based 3d engineering');
#1414=APPLICATION_CONTEXT('managed model based 3d engineering');
#1415=APPLICATION_CONTEXT('managed model based 3d engineering');
ENDSEC;
END-ISO-10303-21;
